<svg xmlns="http://www.w3.org/2000/svg" viewBox="0 0 32 32" role="img" aria-label="SCRM 自动化运营引擎">
  <defs>
    <linearGradient id="s" x1="0" y1="0" x2="1" y2="1">
      <stop offset="0%" stop-color="#6366f1"/>
      <stop offset="100%" stop-color="#10b981"/>
    </linearGradient>
  </defs>
  <rect x="2" y="2" width="28" height="28" rx="7" fill="url(#s)"/>
  <path d="M7 22V11a2 2 0 0 1 2-2h11a2 2 0 0 1 2 2v7a2 2 0 0 1-2 2h-8z" fill="#ffffff" fill-opacity="0.92"/>
  <circle cx="11.5" cy="13" r="1.6" fill="#4f46e5"/>
  <circle cx="15.5" cy="13" r="1.6" fill="#4f46e5"/>
  <path d="M11 15.5c2-.8 4-.8 6 0" stroke="#4f46e5" stroke-width="1.5" stroke-linecap="round" fill="none"/>
  <path d="M21 18.5v3a1.5 1.5 0 0 1-1.5 1.5H13" stroke="#ffffff" stroke-width="1.8" stroke-linecap="round" fill="none"/>
</svg>